<svg width="20" height="21" viewBox="0 0 20 21" fill="none" xmlns="http://www.w3.org/2000/svg">
<path fill-rule="evenodd" clip-rule="evenodd" d="M7.293 15.207C7.10553 15.0195 7.00021 14.7652 7.00021 14.5C7.00021 14.2348 7.10553 13.9805 7.293 13.793L10.586 10.5L7.293 7.207C7.11084 7.01839 7.01005 6.76579 7.01233 6.50359C7.0146 6.2414 7.11977 5.99058 7.30518 5.80518C7.49059 5.61977 7.7414 5.5146 8.0036 5.51232C8.2658 5.51004 8.5184 5.61084 8.707 5.793L12.707 9.793C12.8945 9.98052 12.9998 10.2348 12.9998 10.5C12.9998 10.7652 12.8945 11.0195 12.707 11.207L8.707 15.207C8.51947 15.3945 8.26516 15.4998 8 15.4998C7.73484 15.4998 7.48053 15.3945 7.293 15.207Z" fill="#9CA3AF"/>
</svg>
