<svg width="17" height="17" viewBox="0 0 17 17" fill="none" xmlns="http://www.w3.org/2000/svg">
<path d="M13.5334 6.345H7.53338C6.797 6.345 6.20004 6.94195 6.20004 7.67833V13.6783C6.20004 14.4147 6.797 15.0117 7.53338 15.0117H13.5334C14.2698 15.0117 14.8667 14.4147 14.8667 13.6783V7.67833C14.8667 6.94195 14.2698 6.345 13.5334 6.345Z" stroke="#64748B" stroke-linecap="round" stroke-linejoin="round"/>
<path d="M3.53339 10.345H2.86672C2.5131 10.345 2.17396 10.2045 1.92391 9.95448C1.67386 9.70443 1.53339 9.36529 1.53339 9.01167V3.01167C1.53339 2.65804 1.67386 2.31891 1.92391 2.06886C2.17396 1.81881 2.5131 1.67833 2.86672 1.67833H8.86672C9.22034 1.67833 9.55948 1.81881 9.80953 2.06886C10.0596 2.31891 10.2001 2.65804 10.2001 3.01167V3.67833" stroke="#64748B" stroke-linecap="round" stroke-linejoin="round"/>
</svg>
