<svg width="16" height="16" viewBox="0 0 16 16" fill="none" xmlns="http://www.w3.org/2000/svg">
<g clip-path="url(#clip0_19_5339)">
<path d="M15.2001 7.615C15.2001 3.47287 11.8422 0.115004 7.70007 0.115004C3.55793 0.115004 0.200073 3.47287 0.200073 7.615C0.200073 11.3584 2.9427 14.4612 6.5282 15.0239V9.78297H4.6239V7.615H6.5282V5.96266C6.5282 4.08297 7.64793 3.04469 9.36106 3.04469C10.1814 3.04469 11.0399 3.19118 11.0399 3.19118V5.03688H10.0942C9.16257 5.03688 8.87195 5.61505 8.87195 6.20875V7.615H10.952L10.6195 9.78297H8.87195V15.0239C12.4574 14.4612 15.2001 11.3584 15.2001 7.615Z" fill="#ECECEC"/>
</g>
<defs>
<clipPath id="clip0_19_5339">
<rect width="15" height="15" fill="white" transform="translate(0.200073 0.115004)"/>
</clipPath>
</defs>
</svg>
