<svg width="16" height="16" viewBox="0 0 16 16" fill="none" xmlns="http://www.w3.org/2000/svg">
<g clip-path="url(#clip0_19_5341)">
<path d="M14.0897 0.115004H1.3075C0.69519 0.115004 0.200073 0.598402 0.200073 1.19606V14.031C0.200073 14.6287 0.69519 15.115 1.3075 15.115H14.0897C14.702 15.115 15.2001 14.6287 15.2001 14.0339V1.19606C15.2001 0.598402 14.702 0.115004 14.0897 0.115004ZM4.65027 12.8972H2.42371V5.73707H4.65027V12.8972ZM3.53699 4.76149C2.82214 4.76149 2.245 4.18434 2.245 3.47243C2.245 2.76051 2.82214 2.18336 3.53699 2.18336C4.2489 2.18336 4.82605 2.76051 4.82605 3.47243C4.82605 4.18141 4.2489 4.76149 3.53699 4.76149ZM12.9823 12.8972H10.7587V9.41676C10.7587 8.58766 10.744 7.51832 9.60144 7.51832C8.44421 7.51832 8.26843 8.4236 8.26843 9.35817V12.8972H6.04773V5.73707H8.18054V6.71559H8.20984C8.50574 6.15309 9.2323 5.55836 10.3134 5.55836C12.5663 5.55836 12.9823 7.04079 12.9823 8.96852V12.8972Z" fill="#ECECEC"/>
</g>
<defs>
<clipPath id="clip0_19_5341">
<rect width="15" height="15" fill="white" transform="translate(0.200073 0.115004)"/>
</clipPath>
</defs>
</svg>
