<svg width="16" height="16" viewBox="0 0 16 16" fill="none" xmlns="http://www.w3.org/2000/svg">
<g clip-path="url(#clip0_19_5340)">
<path d="M4.91892 13.7088C10.5779 13.7088 13.674 9.01922 13.674 4.95369C13.674 4.82186 13.6711 4.68709 13.6652 4.55526C14.2675 4.11969 14.7873 3.58019 15.2001 2.96209C14.6391 3.21166 14.0436 3.37464 13.4338 3.44549C14.0759 3.0606 14.5567 2.45595 14.787 1.74363C14.1829 2.10163 13.5223 2.35416 12.8335 2.49041C12.3693 1.99726 11.7557 1.67073 11.0874 1.56131C10.4191 1.4519 9.73332 1.56569 9.13616 1.88509C8.53901 2.20449 8.0637 2.71172 7.78373 3.32835C7.50376 3.94498 7.43472 4.63666 7.58728 5.29647C6.36413 5.23509 5.16753 4.91735 4.07506 4.36384C2.98259 3.81034 2.01863 3.03343 1.24568 2.08348C0.852823 2.76081 0.732609 3.56231 0.909467 4.32509C1.08633 5.08787 1.54699 5.75468 2.19783 6.19002C1.70922 6.17451 1.23131 6.04296 0.803589 5.80623V5.84432C0.803151 6.55512 1.04888 7.24415 1.49902 7.79426C1.94915 8.34438 2.5759 8.72163 3.27273 8.8619C2.82011 8.98574 2.34506 9.00378 1.88435 8.91463C2.08098 9.52593 2.46356 10.0606 2.97868 10.444C3.4938 10.8274 4.11577 11.0404 4.75779 11.0533C3.66784 11.9095 2.32143 12.3739 0.935425 12.3717C0.689628 12.3713 0.444073 12.3562 0.200073 12.3265C1.60811 13.2299 3.24603 13.7096 4.91892 13.7088Z" fill="#ECECEC"/>
</g>
<defs>
<clipPath id="clip0_19_5340">
<rect width="15" height="15" fill="white" transform="translate(0.200073 0.115004)"/>
</clipPath>
</defs>
</svg>
